<svg xmlns="http://www.w3.org/2000/svg" viewBox="0 0 48 48">
  <rect width="48" height="48" rx="12" fill="#0A0A0C" stroke="rgba(255,255,255,0.15)" stroke-width="1.5"/>
  <g transform="translate(1.5, 10)" fill="#FFFFFF">
    <path d="M4 22C10 21 17 14 23 17C28 19 32 22 41 15C36 21 28 22 22 20C17 18 10 22 4 22Z" />
    <path d="M3 14C9 13 16 6 22 9C27 11 31 14 40 7C35 13 27 14 21 12C16 10 9 14 3 14Z" />
    <path d="M5 6C11 5 18 -2 24 1C29 3 33 6 42 -1C37 5 29 6 23 4C18 2 11 6 5 6Z" />
  </g>
</svg>
